<svg viewBox="0 0 100 100" xmlns="http://www.w3.org/2000/svg" fill="none">
  <defs>
    <linearGradient id="sil" x1="0" y1="0" x2="0" y2="1">
      <stop offset="0%" stop-color="#FFFFFF"/>
      <stop offset="55%" stop-color="#D0D0DC"/>
      <stop offset="100%" stop-color="#909098"/>
    </linearGradient>
    <linearGradient id="blu" x1="0" y1="0" x2="0" y2="1">
      <stop offset="0%" stop-color="#4D8BFF"/>
      <stop offset="100%" stop-color="#1840CC"/>
    </linearGradient>
  </defs>

  <!-- Circuit nodes -->
  <line x1="7" y1="34" x2="33" y2="34" stroke="#4D8BFF" stroke-width="1.4"/>
  <circle cx="7"  cy="34" r="2.6" stroke="#4D8BFF" stroke-width="1.4"/>
  <circle cx="20" cy="34" r="2.6" stroke="#4D8BFF" stroke-width="1.4"/>

  <line x1="4" y1="47" x2="33" y2="47" stroke="#4D8BFF" stroke-width="1.4"/>
  <circle cx="4"  cy="47" r="2.6" stroke="#4D8BFF" stroke-width="1.4"/>
  <circle cx="17" cy="47" r="2.6" stroke="#4D8BFF" stroke-width="1.4"/>

  <line x1="7" y1="60" x2="33" y2="60" stroke="#4D8BFF" stroke-width="1.4"/>
  <circle cx="7"  cy="60" r="2.6" stroke="#4D8BFF" stroke-width="1.4"/>

  <!-- J: top bar -->
  <rect x="33" y="12" width="23" height="7" rx="1.5" fill="url(#sil)"/>
  <!-- J: stem -->
  <rect x="45" y="12" width="9"  height="50" rx="1.5" fill="url(#sil)"/>
  <!-- J: bottom hook -->
  <path d="M33 54 L33 63 Q33 80 46 80 Q59 80 59 66 L59 58 L51 58 L51 66 Q51 72 46 72 Q41 72 41 63 L41 54 Z" fill="url(#sil)"/>

  <!-- K: stem -->
  <rect x="62" y="12" width="9" height="76" rx="1.5" fill="url(#sil)"/>
  <!-- K: upper arm (silver) -->
  <path d="M71 12 L93 42 L82 42 L62 12 Z" fill="url(#sil)"/>
  <!-- K: lower arm (silver) -->
  <path d="M71 88 L93 58 L82 58 L62 88 Z" fill="url(#sil)"/>
  <!-- K: blue diagonal stripe -->
  <path d="M78 18 L93 42 L93 58 L78 82 L71 75 L84 50 L71 25 Z" fill="url(#blu)"/>
</svg>
