<svg viewBox="0 0 100 100" xmlns="http://www.w3.org/2000/svg" fill="none">
  <g transform="translate(50,50)" stroke="#000" stroke-width="6.5" stroke-linecap="round" stroke-linejoin="round">
    <!-- OpenAI bloom: 6 interlocking arcs -->
    <path d="M0,-38 C10,-38 18,-30 18,-20 L18,0 C18,10 10,18 0,18 C-10,18 -18,10 -18,0 L-18,-20 C-18,-30 -10,-38 0,-38Z" transform="rotate(0)"/>
    <path d="M0,-38 C10,-38 18,-30 18,-20 L18,0 C18,10 10,18 0,18 C-10,18 -18,10 -18,0 L-18,-20 C-18,-30 -10,-38 0,-38Z" transform="rotate(60)"/>
    <path d="M0,-38 C10,-38 18,-30 18,-20 L18,0 C18,10 10,18 0,18 C-10,18 -18,10 -18,0 L-18,-20 C-18,-30 -10,-38 0,-38Z" transform="rotate(120)"/>
    <path d="M0,-38 C10,-38 18,-30 18,-20 L18,0 C18,10 10,18 0,18 C-10,18 -18,10 -18,0 L-18,-20 C-18,-30 -10,-38 0,-38Z" transform="rotate(180)"/>
    <path d="M0,-38 C10,-38 18,-30 18,-20 L18,0 C18,10 10,18 0,18 C-10,18 -18,10 -18,0 L-18,-20 C-18,-30 -10,-38 0,-38Z" transform="rotate(240)"/>
    <path d="M0,-38 C10,-38 18,-30 18,-20 L18,0 C18,10 10,18 0,18 C-10,18 -18,10 -18,0 L-18,-20 C-18,-30 -10,-38 0,-38Z" transform="rotate(300)"/>
  </g>
</svg>
