<svg viewBox="0 0 80 80" xmlns="http://www.w3.org/2000/svg">
  <rect width="80" height="80" rx="16" fill="#25D366"/>
  <!-- Speech bubble with phone -->
  <path d="M40 14 C25 14 14 25 14 38 C14 43 16 48 20 52 L16 66 L30 62 C33 63 36 64 40 64 C55 64 66 53 66 40 C66 27 55 14 40 14Z" fill="white"/>
  <path d="M32 30 C32 30 30 30 29 32 C28 34 28 36 30 38 C32 40 34 42 36 44 C38 46 40 48 42 49 C44 50 46 50 48 49 C50 48 50 46 50 46 L47 43 C47 43 46 42 44 43 C43 44 42 44 42 44 C42 44 40 42 38 40 C36 38 35 36 35 36 C35 36 35 35 36 34 C37 33 37 32 37 32 L34 29 C34 29 33 29 32 30Z" fill="#25D366"/>
</svg>
